<svg width="1200" height="700" viewBox="0 0 1200 700" fill="none" xmlns="http://www.w3.org/2000/svg"><rect width="1200" height="700" rx="28" fill="#EEF6FF"/><rect x="445" y="170" width="310" height="220" rx="30" fill="#0E4D8C" stroke="#9FD4FF" stroke-width="3"/><text x="600" y="250" text-anchor="middle" fill="#FFFFFF" font-family="Arial, Helvetica, sans-serif" font-size="34" font-weight="700">AI Runtime</text><text x="600" y="292" text-anchor="middle" fill="#D6ECFF" font-family="Arial, Helvetica, sans-serif" font-size="20">APIs • Access • Observability</text><rect x="160" y="120" width="200" height="100" rx="20" fill="#FFFFFF" stroke="#B9D8F6" stroke-width="3"/><rect x="160" y="480" width="200" height="100" rx="20" fill="#FFFFFF" stroke="#B9D8F6" stroke-width="3"/><rect x="840" y="120" width="200" height="100" rx="20" fill="#FFFFFF" stroke="#B9D8F6" stroke-width="3"/><rect x="840" y="480" width="200" height="100" rx="20" fill="#FFFFFF" stroke="#B9D8F6" stroke-width="3"/><text x="260" y="180" text-anchor="middle" fill="#0E4D8C" font-family="Arial, Helvetica, sans-serif" font-size="24" font-weight="700">Access</text><text x="260" y="540" text-anchor="middle" fill="#0E4D8C" font-family="Arial, Helvetica, sans-serif" font-size="24" font-weight="700">Context</text><text x="940" y="180" text-anchor="middle" fill="#0E4D8C" font-family="Arial, Helvetica, sans-serif" font-size="24" font-weight="700">APIs</text><text x="940" y="540" text-anchor="middle" fill="#0E4D8C" font-family="Arial, Helvetica, sans-serif" font-size="24" font-weight="700">Observability</text><path d="M360 170H445" stroke="#4F9CE0" stroke-width="8" stroke-linecap="round"/><path d="M360 530H445" stroke="#4F9CE0" stroke-width="8" stroke-linecap="round"/><path d="M755 170H840" stroke="#4F9CE0" stroke-width="8" stroke-linecap="round"/><path d="M755 530H840" stroke="#4F9CE0" stroke-width="8" stroke-linecap="round"/><path d="M600 390V470" stroke="#4F9CE0" stroke-width="10" stroke-linecap="round"/><rect x="500" y="470" width="200" height="85" rx="22" fill="#FFFFFF" stroke="#B9D8F6" stroke-width="3"/><text x="600" y="523" text-anchor="middle" fill="#0E4D8C" font-family="Arial, Helvetica, sans-serif" font-size="26" font-weight="700">Control Layer</text></svg>