<svg width="1200" height="700" viewBox="0 0 1200 700" fill="none" xmlns="http://www.w3.org/2000/svg"><rect width="1200" height="700" rx="28" fill="#EEF6FF"/><rect x="140" y="120" width="430" height="430" rx="28" fill="#FFFFFF" stroke="#B9D8F6" stroke-width="3"/><rect x="640" y="150" width="410" height="360" rx="28" fill="#0E4D8C"/><rect x="640" y="150" width="410" height="360" rx="28" stroke="#9FD4FF" stroke-width="3"/><text x="845" y="235" text-anchor="middle" fill="#FFFFFF" font-family="Arial, Helvetica, sans-serif" font-size="34" font-weight="700">AI Readiness</text><text x="845" y="278" text-anchor="middle" fill="#D6ECFF" font-family="Arial, Helvetica, sans-serif" font-size="20">Workflows • Systems • Governance</text><rect x="205" y="200" width="290" height="22" rx="11" fill="#C9E1F8"/><rect x="205" y="280" width="240" height="22" rx="11" fill="#C9E1F8"/><rect x="205" y="360" width="270" height="22" rx="11" fill="#C9E1F8"/><rect x="205" y="440" width="210" height="22" rx="11" fill="#C9E1F8"/><circle cx="180" cy="211" r="14" fill="#0E4D8C"/><circle cx="180" cy="291" r="14" fill="#0E4D8C"/><circle cx="180" cy="371" r="14" fill="#0E4D8C"/><circle cx="180" cy="451" r="14" fill="#0E4D8C"/><path d="M173 211L179 217L189 204" stroke="#FFFFFF" stroke-width="4" stroke-linecap="round" stroke-linejoin="round"/><path d="M173 291L179 297L189 284" stroke="#FFFFFF" stroke-width="4" stroke-linecap="round" stroke-linejoin="round"/><path d="M173 371L179 377L189 364" stroke="#FFFFFF" stroke-width="4" stroke-linecap="round" stroke-linejoin="round"/><path d="M173 451L179 457L189 444" stroke="#FFFFFF" stroke-width="4" stroke-linecap="round" stroke-linejoin="round"/><circle cx="910" cy="430" r="78" fill="#1C72C3"/><circle cx="910" cy="430" r="54" fill="#FFFFFF"/><circle cx="910" cy="430" r="24" fill="#1C72C3"/><path d="M965 485L1028 548" stroke="#FFFFFF" stroke-width="18" stroke-linecap="round"/></svg>