<svg width="1200" height="700" viewBox="0 0 1200 700" fill="none" xmlns="http://www.w3.org/2000/svg"><rect width="1200" height="700" rx="28" fill="#EEF6FF"/><g opacity="0.18" fill="#A8D2F5"><rect x="110" y="430" width="110" height="180" rx="12"/><rect x="250" y="360" width="150" height="250" rx="12"/><rect x="430" y="410" width="100" height="200" rx="12"/></g><path d="M565 335C565 262 624 204 697 204C736 204 772 221 797 248C812 242 828 239 845 239C918 239 978 298 978 371C978 377 978 383 977 389H1012C1065 389 1108 432 1108 485C1108 538 1065 581 1012 581H653C589 581 537 529 537 465C537 405 583 356 643 350C617 346 592 339 565 335Z" fill="#0E4D8C"/><rect x="140" y="120" width="330" height="230" rx="28" fill="#FFFFFF" stroke="#B9D8F6" stroke-width="3"/><text x="305" y="190" text-anchor="middle" fill="#0E4D8C" font-family="Arial, Helvetica, sans-serif" font-size="32" font-weight="700">Legacy to Modern</text><path d="M225 255H385" stroke="#4F9CE0" stroke-width="12" stroke-linecap="round"/><path d="M350 220L385 255L350 290" stroke="#4F9CE0" stroke-width="12" stroke-linecap="round" stroke-linejoin="round"/><rect x="760" y="318" width="70" height="110" rx="10" fill="#FFFFFF" opacity="0.95"/><rect x="850" y="290" width="90" height="138" rx="10" fill="#FFFFFF" opacity="0.9"/><rect x="955" y="328" width="70" height="100" rx="10" fill="#FFFFFF" opacity="0.95"/></svg>