<svg width="1200" height="700" viewBox="0 0 1200 700" fill="none" xmlns="http://www.w3.org/2000/svg">
  <rect width="1200" height="700" rx="28" fill="#EEF6FF"/>
  <rect x="470" y="250" width="260" height="200" rx="28" fill="#125191" stroke="#94D3FF" stroke-width="3"/>
  <text x="600" y="316" text-anchor="middle" fill="#FFFFFF" font-family="Arial, Helvetica, sans-serif" font-size="32" font-weight="700">MCP Layer</text>
  <text x="600" y="356" text-anchor="middle" fill="#D5EEFF" font-family="Arial, Helvetica, sans-serif" font-size="20">Context • Tools • Access</text>
  <g fill="#FFFFFF" stroke="#B7DCFF" stroke-width="2">
    <rect x="92" y="110" width="240" height="90" rx="18"/>
    <rect x="92" y="245" width="240" height="90" rx="18"/>
    <rect x="92" y="380" width="240" height="90" rx="18"/>
    <rect x="92" y="515" width="240" height="90" rx="18"/>
    <rect x="868" y="110" width="240" height="90" rx="18"/>
    <rect x="868" y="245" width="240" height="90" rx="18"/>
    <rect x="868" y="380" width="240" height="90" rx="18"/>
    <rect x="868" y="515" width="240" height="90" rx="18"/>
  </g>
  <g fill="#144E89" font-family="Arial, Helvetica, sans-serif" font-size="24" font-weight="700">
    <text x="212" y="165" text-anchor="middle">Policies</text>
    <text x="212" y="300" text-anchor="middle">Documents</text>
    <text x="212" y="435" text-anchor="middle">Knowledge</text>
    <text x="212" y="570" text-anchor="middle">Datastores</text>
    <text x="988" y="165" text-anchor="middle">CRM</text>
    <text x="988" y="300" text-anchor="middle">ERP</text>
    <text x="988" y="435" text-anchor="middle">Ticketing</text>
    <text x="988" y="570" text-anchor="middle">Messaging</text>
  </g>
  <g stroke="#5EA8EE" stroke-width="4" stroke-linecap="round">
    <path d="M332 155H446"/>
    <path d="M332 290H446"/>
    <path d="M332 425H446"/>
    <path d="M332 560H446"/>
    <path d="M754 155H868"/>
    <path d="M754 290H868"/>
    <path d="M754 425H868"/>
    <path d="M754 560H868"/>
  </g>
</svg>