<svg width="1200" height="700" viewBox="0 0 1200 700" fill="none" xmlns="http://www.w3.org/2000/svg"><rect width="1200" height="700" rx="28" fill="#EEF6FF"/><rect x="390" y="130" width="420" height="440" rx="32" fill="#0E4D8C" stroke="#9FD4FF" stroke-width="3"/><text x="600" y="220" text-anchor="middle" fill="#FFFFFF" font-family="Arial, Helvetica, sans-serif" font-size="34" font-weight="700">Governance</text><text x="600" y="262" text-anchor="middle" fill="#D6ECFF" font-family="Arial, Helvetica, sans-serif" font-size="20">Controls • Rollout • Visibility</text><circle cx="600" cy="350" r="84" fill="#1D73C5"/><path d="M600 300L646 324V376C646 416 618 452 600 462C582 452 554 416 554 376V324L600 300Z" fill="#FFFFFF"/><rect x="490" y="500" width="220" height="22" rx="11" fill="#7FC0F6"/><rect x="520" y="455" width="160" height="22" rx="11" fill="#7FC0F6"/><circle cx="280" cy="230" r="58" fill="#FFFFFF" stroke="#B9D8F6" stroke-width="3"/><circle cx="920" cy="470" r="58" fill="#FFFFFF" stroke="#B9D8F6" stroke-width="3"/><path d="M280 202V258M252 230H308" stroke="#0E4D8C" stroke-width="10" stroke-linecap="round"/><path d="M892 470L916 494L952 448" stroke="#0E4D8C" stroke-width="10" stroke-linecap="round" stroke-linejoin="round"/></svg>