<svg width="1200" height="700" viewBox="0 0 1200 700" fill="none" xmlns="http://www.w3.org/2000/svg"><rect width="1200" height="700" rx="28" fill="#EEF6FF"/><rect x="455" y="220" width="290" height="200" rx="28" fill="#0E4D8C" stroke="#9FD4FF" stroke-width="3"/><text x="600" y="295" text-anchor="middle" fill="#FFFFFF" font-family="Arial, Helvetica, sans-serif" font-size="34" font-weight="700">Integration Layer</text><text x="600" y="338" text-anchor="middle" fill="#D6ECFF" font-family="Arial, Helvetica, sans-serif" font-size="20">Context • Tools • Access</text><g fill="#FFFFFF" stroke="#B9D8F6" stroke-width="3"><rect x="120" y="120" width="220" height="90" rx="18"/><rect x="120" y="280" width="220" height="90" rx="18"/><rect x="120" y="440" width="220" height="90" rx="18"/><rect x="860" y="120" width="220" height="90" rx="18"/><rect x="860" y="280" width="220" height="90" rx="18"/><rect x="860" y="440" width="220" height="90" rx="18"/></g><text x="230" y="176" text-anchor="middle" fill="#0E4D8C" font-family="Arial, Helvetica, sans-serif" font-size="24" font-weight="700">Documents</text><text x="230" y="336" text-anchor="middle" fill="#0E4D8C" font-family="Arial, Helvetica, sans-serif" font-size="24" font-weight="700">Knowledge</text><text x="230" y="496" text-anchor="middle" fill="#0E4D8C" font-family="Arial, Helvetica, sans-serif" font-size="24" font-weight="700">Policies</text><text x="970" y="176" text-anchor="middle" fill="#0E4D8C" font-family="Arial, Helvetica, sans-serif" font-size="24" font-weight="700">CRM</text><text x="970" y="336" text-anchor="middle" fill="#0E4D8C" font-family="Arial, Helvetica, sans-serif" font-size="24" font-weight="700">ERP</text><text x="970" y="496" text-anchor="middle" fill="#0E4D8C" font-family="Arial, Helvetica, sans-serif" font-size="24" font-weight="700">Ticketing</text><path d="M340 165H435" stroke="#4F9CE0" stroke-width="8" stroke-linecap="round"/><path d="M340 325H435" stroke="#4F9CE0" stroke-width="8" stroke-linecap="round"/><path d="M340 485H435" stroke="#4F9CE0" stroke-width="8" stroke-linecap="round"/><path d="M745 165H860" stroke="#4F9CE0" stroke-width="8" stroke-linecap="round"/><path d="M745 325H860" stroke="#4F9CE0" stroke-width="8" stroke-linecap="round"/><path d="M745 485H860" stroke="#4F9CE0" stroke-width="8" stroke-linecap="round"/></svg>