<svg width="1200" height="700" viewBox="0 0 1200 700" fill="none" xmlns="http://www.w3.org/2000/svg"><rect width="1200" height="700" rx="28" fill="#EEF6FF"/><rect x="430" y="120" width="340" height="140" rx="26" fill="#0E4D8C" stroke="#9FD4FF" stroke-width="3"/><rect x="210" y="330" width="220" height="120" rx="22" fill="#FFFFFF" stroke="#B9D8F6" stroke-width="3"/><rect x="490" y="330" width="220" height="120" rx="22" fill="#FFFFFF" stroke="#B9D8F6" stroke-width="3"/><rect x="770" y="330" width="220" height="120" rx="22" fill="#FFFFFF" stroke="#B9D8F6" stroke-width="3"/><text x="600" y="190" text-anchor="middle" fill="#FFFFFF" font-family="Arial, Helvetica, sans-serif" font-size="34" font-weight="700">Platform Layer</text><text x="320" y="400" text-anchor="middle" fill="#0E4D8C" font-family="Arial, Helvetica, sans-serif" font-size="24" font-weight="700">Tenancy</text><text x="600" y="400" text-anchor="middle" fill="#0E4D8C" font-family="Arial, Helvetica, sans-serif" font-size="24" font-weight="700">Reliability</text><text x="880" y="400" text-anchor="middle" fill="#0E4D8C" font-family="Arial, Helvetica, sans-serif" font-size="24" font-weight="700">Extensibility</text><path d="M320 330V285C320 260 340 240 365 240H430" stroke="#4F9CE0" stroke-width="8" stroke-linecap="round" stroke-linejoin="round"/><path d="M600 330V285C600 260 600 240 600 240H600" stroke="#4F9CE0" stroke-width="8" stroke-linecap="round" stroke-linejoin="round"/><path d="M880 330V285C880 260 860 240 835 240H770" stroke="#4F9CE0" stroke-width="8" stroke-linecap="round" stroke-linejoin="round"/><rect x="310" y="505" width="580" height="65" rx="18" fill="#D5EAFB"/><text x="600" y="548" text-anchor="middle" fill="#0E4D8C" font-family="Arial, Helvetica, sans-serif" font-size="28" font-weight="700">Built for Scale, Product Growth, and AI Enablement</text></svg>