<svg width="1200" height="700" viewBox="0 0 1200 700" fill="none" xmlns="http://www.w3.org/2000/svg"><rect width="1200" height="700" rx="28" fill="#EEF6FF"/><rect x="180" y="170" width="420" height="340" rx="28" fill="#FFFFFF" stroke="#B9D8F6" stroke-width="3"/><text x="390" y="245" text-anchor="middle" fill="#0E4D8C" font-family="Arial, Helvetica, sans-serif" font-size="34" font-weight="700">Private Knowledge</text><rect x="250" y="290" width="280" height="22" rx="11" fill="#C9E1F8"/><rect x="250" y="350" width="240" height="22" rx="11" fill="#C9E1F8"/><rect x="250" y="410" width="300" height="22" rx="11" fill="#C9E1F8"/><rect x="250" y="470" width="200" height="22" rx="11" fill="#C9E1F8"/><path d="M785 235C785 182 828 140 880 140C932 140 975 182 975 235V280H1015C1040 280 1060 300 1060 325V495C1060 520 1040 540 1015 540H745C720 540 700 520 700 495V325C700 300 720 280 745 280H785V235Z" fill="#0E4D8C"/><path d="M825 235C825 204 850 180 880 180C910 180 935 204 935 235V280H825V235Z" fill="#1D73C5"/><circle cx="880" cy="400" r="34" fill="#FFFFFF"/><rect x="870" y="430" width="20" height="45" rx="10" fill="#FFFFFF"/></svg>