<svg width="1200" height="700" viewBox="0 0 1200 700" fill="none" xmlns="http://www.w3.org/2000/svg"><rect width="1200" height="700" rx="28" fill="#EEF6FF"/><rect x="120" y="140" width="360" height="420" rx="28" fill="#FFFFFF" stroke="#B9D8F6" stroke-width="3"/><rect x="720" y="180" width="360" height="340" rx="28" fill="#0E4D8C" stroke="#9FD4FF" stroke-width="3"/><rect x="165" y="200" width="270" height="28" rx="14" fill="#D3E8FA"/><rect x="165" y="255" width="190" height="18" rx="9" fill="#D3E8FA"/><rect x="165" y="310" width="240" height="18" rx="9" fill="#D3E8FA"/><rect x="165" y="365" width="220" height="18" rx="9" fill="#D3E8FA"/><rect x="165" y="420" width="250" height="18" rx="9" fill="#D3E8FA"/><path d="M480 350H720" stroke="#4F9CE0" stroke-width="12" stroke-linecap="round"/><path d="M665 315L720 350L665 385" stroke="#4F9CE0" stroke-width="12" stroke-linecap="round" stroke-linejoin="round"/><text x="900" y="275" text-anchor="middle" fill="#FFFFFF" font-family="Arial, Helvetica, sans-serif" font-size="34" font-weight="700">API Layer</text><text x="900" y="325" text-anchor="middle" fill="#D6ECFF" font-family="Arial, Helvetica, sans-serif" font-size="20">Modernized for Performance and Integration</text><rect x="790" y="390" width="220" height="20" rx="10" fill="#7FC0F6"/><rect x="820" y="435" width="160" height="20" rx="10" fill="#7FC0F6"/></svg>