<svg width="1200" height="700" viewBox="0 0 1200 700" fill="none" xmlns="http://www.w3.org/2000/svg"><rect width="1200" height="700" rx="28" fill="#EEF6FF"/><rect x="460" y="210" width="280" height="180" rx="28" fill="#0E4D8C" stroke="#9FD4FF" stroke-width="3"/><text x="600" y="285" text-anchor="middle" fill="#FFFFFF" font-family="Arial, Helvetica, sans-serif" font-size="34" font-weight="700">Workflow Core</text><text x="600" y="328" text-anchor="middle" fill="#D6ECFF" font-family="Arial, Helvetica, sans-serif" font-size="20">Context • Decisions • Actions</text><rect x="110" y="120" width="230" height="100" rx="22" fill="#FFFFFF" stroke="#B9D8F6" stroke-width="3"/><rect x="860" y="120" width="230" height="100" rx="22" fill="#FFFFFF" stroke="#B9D8F6" stroke-width="3"/><rect x="110" y="480" width="230" height="100" rx="22" fill="#FFFFFF" stroke="#B9D8F6" stroke-width="3"/><rect x="860" y="480" width="230" height="100" rx="22" fill="#FFFFFF" stroke="#B9D8F6" stroke-width="3"/><text x="225" y="178" text-anchor="middle" fill="#0E4D8C" font-family="Arial, Helvetica, sans-serif" font-size="28" font-weight="700">Inputs</text><text x="975" y="178" text-anchor="middle" fill="#0E4D8C" font-family="Arial, Helvetica, sans-serif" font-size="28" font-weight="700">Systems</text><text x="225" y="538" text-anchor="middle" fill="#0E4D8C" font-family="Arial, Helvetica, sans-serif" font-size="28" font-weight="700">Approvals</text><text x="975" y="538" text-anchor="middle" fill="#0E4D8C" font-family="Arial, Helvetica, sans-serif" font-size="28" font-weight="700">Actions</text><path d="M340 170H430" stroke="#4F9CE0" stroke-width="8" stroke-linecap="round"/><path d="M770 170H860" stroke="#4F9CE0" stroke-width="8" stroke-linecap="round"/><path d="M340 530H430" stroke="#4F9CE0" stroke-width="8" stroke-linecap="round"/><path d="M770 530H860" stroke="#4F9CE0" stroke-width="8" stroke-linecap="round"/><path d="M225 220V300C225 325 245 345 270 345H460" stroke="#4F9CE0" stroke-width="6" stroke-linecap="round" stroke-linejoin="round"/><path d="M975 220V300C975 325 955 345 930 345H740" stroke="#4F9CE0" stroke-width="6" stroke-linecap="round" stroke-linejoin="round"/></svg>